<svg width="12" height="12" viewBox="0 0 12 12" fill="none" xmlns="http://www.w3.org/2000/svg">
<path d="M10.6619 7.75283C10.311 7.29189 9.75936 7.02754 9.14854 7.02754H9.00244C9.08336 6.84467 9.27808 6.71531 9.50518 6.71531C9.61807 6.71531 9.70954 6.63095 9.70954 6.52689C9.70954 6.42283 9.61807 6.33847 9.50518 6.33847C9.26066 6.33847 9.03746 6.42398 8.86871 6.56422C8.74546 6.30898 8.5098 6.10986 8.21993 6.02045L8.3448 4.42843H8.58867C8.64948 4.42843 8.70717 4.40343 8.74599 4.36027C8.78482 4.31709 8.80075 4.26021 8.78948 4.20509L8.53867 2.97914C8.52043 2.89013 8.43613 2.82564 8.33786 2.82564H7.42469L7.673 1.52015C7.68329 1.46591 7.71981 1.42062 7.77313 1.39585C7.82643 1.37111 7.88763 1.37099 7.94103 1.3956L9.054 1.90867C9.155 1.95521 9.27772 1.91747 9.3282 1.82441C9.37868 1.73132 9.33775 1.61816 9.23681 1.57163L8.1238 1.05859C7.95378 0.980208 7.75894 0.980482 7.58917 1.05935C7.41941 1.13822 7.30322 1.28245 7.27039 1.45509L7.0097 2.82568H2.95295C2.8547 2.82568 2.77035 2.89015 2.75213 2.97917L2.50132 4.20513C2.49006 4.26025 2.50598 4.31712 2.54481 4.36031C2.58364 4.40349 2.64132 4.42847 2.70214 4.42847H2.946L3.14307 6.94488H2.29345C1.58023 6.94488 1 7.47986 1 8.13746V8.40828C1 8.48463 1.04931 8.55019 1.12011 8.57982C1.04398 8.69416 1 8.82853 1 8.97223C1 9.11592 1.04398 9.25031 1.12011 9.36463C1.04931 9.39424 1 9.45982 1 9.53617V10.1301C1 10.6095 1.42303 10.9996 1.94304 10.9996H4.40037C4.40142 10.9996 4.40246 10.9995 4.4035 10.9995H8.21948L8.21482 10.9964C8.22264 10.9959 8.2305 10.9958 8.23832 10.9951C8.33239 10.9871 8.42581 10.9681 8.51596 10.9388C8.5939 10.9134 8.67524 10.9005 8.75779 10.9005C8.79675 10.9005 8.83566 10.9034 8.87326 10.909C8.91665 10.9156 8.95912 10.9256 8.99941 10.9387C9.12479 10.9796 9.25393 11 9.38188 11C9.53882 11 9.69399 10.9693 9.83825 10.9084C9.94565 10.8628 10.0457 10.8046 10.1357 10.7354C10.1373 10.7342 10.1389 10.733 10.1404 10.7318C10.2428 10.6524 10.3313 10.5598 10.4034 10.4564C10.4572 10.3792 10.5016 10.2962 10.5355 10.2098L10.8875 9.31158C11.0951 8.78189 11.0128 8.21379 10.6619 7.75283ZM8.55348 6.96994V7.02754H8.49097C8.11766 7.02754 7.81393 6.74752 7.81393 6.40332V6.3457H7.87644C8.24978 6.3457 8.55348 6.6257 8.55348 6.96994ZM3.13615 4.05156C3.13564 4.05156 3.13511 4.05164 3.1346 4.05164H2.94867L3.12238 3.20251H8.16841L8.34213 4.05164H8.15623C8.15572 4.05164 8.15521 4.05156 8.15468 4.05156H3.13615ZM1.40871 8.13746C1.40871 7.68765 1.8056 7.32172 2.29345 7.32172H4.04997C4.53782 7.32172 4.93471 7.68765 4.93471 8.13746V8.21986H4.52742H1.816H1.40871V8.13746ZM4.93474 10.1301C4.93474 10.4017 4.69505 10.6228 4.40039 10.6228H1.94306C1.64844 10.6227 1.40871 10.4017 1.40871 10.1301V9.72459H1.816H4.52744H4.93474V10.1301ZM4.52744 9.34775H1.816C1.59144 9.34775 1.40871 9.17928 1.40871 8.97223C1.40871 8.76517 1.59144 8.5967 1.816 8.5967H4.52744C4.75201 8.5967 4.93474 8.76517 4.93474 8.97223C4.93474 9.17928 4.75201 9.34775 4.52744 9.34775ZM5.17695 10.6226C5.28185 10.4825 5.34345 10.3128 5.34345 10.13V9.53613C5.34345 9.45978 5.29413 9.39422 5.22334 9.36459C5.29947 9.25025 5.34345 9.11588 5.34345 8.97219C5.34345 8.82849 5.29947 8.6941 5.22334 8.57978C5.29413 8.55017 5.34345 8.48459 5.34345 8.40824V8.13742C5.34345 7.47982 4.76321 6.94484 4.04999 6.94484H3.55286L3.3558 4.42845H7.93503L7.81423 5.96884H7.60962C7.49673 5.96884 7.40526 6.0532 7.40526 6.15726V6.40332C7.40526 6.68722 7.53433 6.94369 7.74095 7.12605C7.38745 7.24193 7.07916 7.45674 6.8538 7.75279C6.50285 8.21373 6.42062 8.78187 6.62817 9.31152L6.98024 10.2097C7.0404 10.3632 7.13388 10.5036 7.25253 10.6226L5.17695 10.6226ZM10.5031 9.18349L10.1511 10.0817C10.1277 10.1417 10.0969 10.1992 10.0596 10.2526C10.0107 10.3228 9.95082 10.3859 9.88155 10.4402C9.88004 10.4413 9.87862 10.4424 9.87716 10.4435C9.81408 10.4926 9.7436 10.5338 9.66777 10.5659C9.50326 10.6355 9.31434 10.6418 9.13587 10.5835C9.0727 10.5629 9.00655 10.5473 8.93906 10.5371C8.87964 10.5282 8.81867 10.5237 8.75786 10.5237C8.62887 10.5237 8.50173 10.5438 8.37999 10.5834C8.32157 10.6024 8.26128 10.6147 8.20057 10.6198C8.07819 10.6304 7.95626 10.6117 7.84791 10.5659C7.62101 10.4699 7.44936 10.298 7.36459 10.0817L7.01252 9.18351C6.85083 8.77094 6.91493 8.32838 7.18826 7.96933C7.46163 7.61029 7.89127 7.40435 8.36702 7.40435H9.14856C9.62438 7.40435 10.054 7.61027 10.3274 7.96933C10.6007 8.32838 10.6648 8.77094 10.5031 9.18349Z" fill="#3B82ED" stroke="#3B82ED" stroke-width="0.390625"/>
<path d="M10.1044 8.11369C10.0385 8.02716 9.9604 7.95054 9.87221 7.88593C9.78385 7.82123 9.65529 7.8348 9.58507 7.91629C9.51489 7.99779 9.52963 8.11629 9.61799 8.18103C9.67546 8.2231 9.72653 8.27328 9.76987 8.33021C9.91392 8.51943 9.94769 8.75267 9.86249 8.97011L9.51051 9.86826C9.47216 9.96613 9.52709 10.0741 9.63326 10.1095C9.6562 10.1171 9.67963 10.1208 9.70272 10.1208C9.78635 10.1208 9.86484 10.073 9.89492 9.99633L10.2469 9.09816C10.378 8.76363 10.326 8.40478 10.1044 8.11369Z" fill="#3B82ED" stroke="#3B82ED" stroke-width="0.390625"/>
<path d="M9.14848 8.03221C9.26134 8.03221 9.35283 7.94785 9.35283 7.84379C9.35283 7.73973 9.26134 7.65537 9.14848 7.65537C9.03562 7.65537 8.94412 7.73973 8.94412 7.84379C8.94412 7.94785 9.03562 8.03221 9.14848 8.03221Z" fill="#3B82ED" stroke="#3B82ED" stroke-width="0.390625"/>
</svg>
