<svg width="12" height="12" viewBox="0 0 12 12" fill="none" xmlns="http://www.w3.org/2000/svg">
<path d="M4.80425 1.04557C4.53646 1.04557 4.35604 1.22822 4.35604 1.45324V3.39508C4.35604 3.6159 4.22396 3.72152 4.02146 3.72152C3.83649 3.72152 3.72738 3.59033 3.72738 3.43457L3.71729 1.41738C3.71729 1.16285 3.45893 1 3.21917 1C2.97932 1 2.72107 1.16285 2.72107 1.41738V3.43457C2.72107 3.59035 2.60176 3.72152 2.41677 3.72152C2.21452 3.72152 2.08235 3.6159 2.08235 3.39508V1.45324C2.08235 1.22822 1.90191 1.04557 1.63411 1.04557C1.36612 1.04596 1.22338 1.24426 1.19433 1.43875C1.16527 1.63342 1.01657 3.02365 1.00028 3.91219C0.983762 4.80094 1.70942 5.32072 2.12283 5.48584C2.40548 5.59871 2.61007 5.84145 2.61007 6.13338L2.44097 11H3.99731L3.8282 6.13338C3.8282 5.84146 4.03266 5.59873 4.31533 5.48584C4.72883 5.32072 5.45451 4.80094 5.43809 3.91219C5.42169 3.02365 5.27321 1.63342 5.24392 1.43875C5.21475 1.24426 5.07216 1.04596 4.80425 1.04557Z" fill="#3B82ED" stroke="#3B82ED" stroke-width="0.390625"/>
<path d="M8.7811 1.07686C7.70435 1.07686 6.56207 2.06455 6.56207 3.61608C6.56207 4.50483 7.3433 5.22635 7.68485 5.48584C8.01884 5.73983 8.1721 5.84145 8.1721 6.13338L8.00299 11H9.55933L9.39011 6.13338C9.39011 5.84147 9.54359 5.73983 9.87758 5.48584C10.2187 5.22633 11 4.50483 11 3.61608C11 2.06455 9.85786 1.07686 8.7811 1.07686Z" fill="#3B82ED" stroke="#3B82ED" stroke-width="0.390625"/>
</svg>
