<svg width="12" height="12" viewBox="0 0 12 12" fill="none" xmlns="http://www.w3.org/2000/svg">
<path d="M2 1C1.66954 1 1.40001 1.33691 1.40001 1.75V5.20312C1.65938 4.92188 1.9875 4.69434 2.4 4.51562V3.5C2.4 2.83496 3.3086 2.75 4.1 2.75C4.89141 2.75 5.8 2.83496 5.8 3.5V4C5.86719 3.99902 5.93125 4 6 4C6.06875 4 6.13281 3.99902 6.2 4V3.5C6.2 2.83496 7.10859 2.75 7.9 2.75C8.6914 2.75 9.6 2.83496 9.6 3.5V4.50781C10.0117 4.68555 10.3383 4.91797 10.6 5.20312V1.75C10.6 1.33691 10.3305 1 10 1H2ZM6 4.5C2.18125 4.5 0.996881 5.38281 1.00001 7.75H11C11.0031 5.36719 9.81874 4.5 6 4.5ZM1.00001 8.25V11H2.4V10C2.4 9.64062 2.5125 9.5 2.8 9.5H9.2C9.4875 9.5 9.6 9.64062 9.6 10V11H11V8.25H1.00001Z" fill="#3B82ED" stroke="#3B82ED"/>
</svg>
