<svg width="10" height="11" viewBox="0 0 10 11" fill="none" xmlns="http://www.w3.org/2000/svg">
<path d="M5 4.84161C5.60777 4.84161 6.19064 4.58656 6.6204 4.13257C7.05016 3.67859 7.29159 3.06284 7.29159 2.42081C7.29159 1.77877 7.05016 1.16303 6.6204 0.709038C6.19064 0.255048 5.60777 0 5 0C4.39223 0 3.80936 0.255048 3.3796 0.709038C2.94984 1.16303 2.70841 1.77877 2.70841 2.42081C2.70841 3.06284 2.94984 3.67859 3.3796 4.13257C3.80936 4.58656 4.39223 4.84161 5 4.84161ZM5 5.9052C1.95318 5.9052 0 7.68137 0 8.54617V10.161H10V8.54617C10 7.50035 8.15091 5.9052 5 5.9052Z" fill="#3B82ED"/>
</svg>
