<svg width="203" height="192" viewBox="0 0 203 192" fill="none" xmlns="http://www.w3.org/2000/svg">
<rect width="203" height="192" rx="48" fill="white"/>
<mask id="path-2-outside-1_102_7" maskUnits="userSpaceOnUse" x="65" y="57" width="70" height="98" fill="black">
<rect fill="white" x="65" y="57" width="70" height="98"/>
<path d="M101.776 58.24C107.749 58.24 113.083 59.776 117.776 62.848C122.555 65.8347 126.309 69.9733 129.04 75.264C131.856 80.5547 133.264 86.6987 133.264 93.696C133.264 100.693 131.856 106.88 129.04 112.256C126.309 117.547 122.597 121.728 117.904 124.8C113.296 127.787 108.091 129.28 102.288 129.28C98.8747 129.28 95.6747 128.725 92.688 127.616C89.7013 126.507 87.056 125.099 84.752 123.392C82.5333 121.685 80.784 119.979 79.504 118.272C78.3093 116.48 77.712 114.987 77.712 113.792L81.68 112.128V145.792C81.68 148.011 80.9547 149.845 79.504 151.296C78.0533 152.832 76.2187 153.6 74 153.6C71.7813 153.6 69.9467 152.875 68.496 151.424C67.0453 149.973 66.32 148.096 66.32 145.792V67.328C66.32 65.1093 67.0453 63.2747 68.496 61.824C69.9467 60.288 71.7813 59.52 74 59.52C76.2187 59.52 78.0533 60.288 79.504 61.824C80.9547 63.2747 81.68 65.1093 81.68 67.328V73.6L79.504 72.448C79.504 71.3387 80.1013 70.016 81.296 68.48C82.4907 66.8587 84.112 65.28 86.16 63.744C88.208 62.1227 90.5547 60.8 93.2 59.776C95.9307 58.752 98.7893 58.24 101.776 58.24ZM99.856 72.32C96.1013 72.32 92.816 73.2587 90 75.136C87.184 77.0133 84.9653 79.5733 83.344 82.816C81.808 85.9733 81.04 89.6 81.04 93.696C81.04 97.7067 81.808 101.376 83.344 104.704C84.9653 107.947 87.184 110.507 90 112.384C92.816 114.261 96.1013 115.2 99.856 115.2C103.611 115.2 106.853 114.261 109.584 112.384C112.4 110.507 114.576 107.947 116.112 104.704C117.733 101.376 118.544 97.7067 118.544 93.696C118.544 89.6 117.733 85.9733 116.112 82.816C114.576 79.5733 112.4 77.0133 109.584 75.136C106.853 73.2587 103.611 72.32 99.856 72.32Z"/>
</mask>
<path d="M101.776 58.24C107.749 58.24 113.083 59.776 117.776 62.848C122.555 65.8347 126.309 69.9733 129.04 75.264C131.856 80.5547 133.264 86.6987 133.264 93.696C133.264 100.693 131.856 106.88 129.04 112.256C126.309 117.547 122.597 121.728 117.904 124.8C113.296 127.787 108.091 129.28 102.288 129.28C98.8747 129.28 95.6747 128.725 92.688 127.616C89.7013 126.507 87.056 125.099 84.752 123.392C82.5333 121.685 80.784 119.979 79.504 118.272C78.3093 116.48 77.712 114.987 77.712 113.792L81.68 112.128V145.792C81.68 148.011 80.9547 149.845 79.504 151.296C78.0533 152.832 76.2187 153.6 74 153.6C71.7813 153.6 69.9467 152.875 68.496 151.424C67.0453 149.973 66.32 148.096 66.32 145.792V67.328C66.32 65.1093 67.0453 63.2747 68.496 61.824C69.9467 60.288 71.7813 59.52 74 59.52C76.2187 59.52 78.0533 60.288 79.504 61.824C80.9547 63.2747 81.68 65.1093 81.68 67.328V73.6L79.504 72.448C79.504 71.3387 80.1013 70.016 81.296 68.48C82.4907 66.8587 84.112 65.28 86.16 63.744C88.208 62.1227 90.5547 60.8 93.2 59.776C95.9307 58.752 98.7893 58.24 101.776 58.24ZM99.856 72.32C96.1013 72.32 92.816 73.2587 90 75.136C87.184 77.0133 84.9653 79.5733 83.344 82.816C81.808 85.9733 81.04 89.6 81.04 93.696C81.04 97.7067 81.808 101.376 83.344 104.704C84.9653 107.947 87.184 110.507 90 112.384C92.816 114.261 96.1013 115.2 99.856 115.2C103.611 115.2 106.853 114.261 109.584 112.384C112.4 110.507 114.576 107.947 116.112 104.704C117.733 101.376 118.544 97.7067 118.544 93.696C118.544 89.6 117.733 85.9733 116.112 82.816C114.576 79.5733 112.4 77.0133 109.584 75.136C106.853 73.2587 103.611 72.32 99.856 72.32Z" fill="#3B82ED"/>
<path d="M117.776 62.848L117.228 63.6847L117.237 63.6904L117.246 63.696L117.776 62.848ZM129.04 75.264L128.151 75.7227L128.157 75.7338L129.04 75.264ZM129.04 112.256L128.154 111.792L128.151 111.797L129.04 112.256ZM117.904 124.8L118.448 125.639L118.452 125.637L117.904 124.8ZM92.688 127.616L93.0362 126.679L93.0362 126.679L92.688 127.616ZM84.752 123.392L84.1423 124.185L84.1495 124.19L84.1568 124.196L84.752 123.392ZM79.504 118.272L78.672 118.827L78.6873 118.85L78.704 118.872L79.504 118.272ZM77.712 113.792L77.3253 112.87L76.712 113.127V113.792H77.712ZM81.68 112.128H82.68V110.624L81.2933 111.206L81.68 112.128ZM79.504 151.296L78.7969 150.589L78.7868 150.599L78.777 150.609L79.504 151.296ZM68.496 151.424L67.7889 152.131L67.7889 152.131L68.496 151.424ZM68.496 61.824L69.2031 62.5311L69.2132 62.521L69.223 62.5106L68.496 61.824ZM79.504 61.824L78.777 62.5106L78.7868 62.521L78.7969 62.5311L79.504 61.824ZM81.68 73.6L81.2121 74.4838L82.68 75.2609V73.6H81.68ZM79.504 72.448H78.504V73.0501L79.0361 73.3318L79.504 72.448ZM81.296 68.48L82.0854 69.0939L82.0933 69.0837L82.1011 69.0732L81.296 68.48ZM86.16 63.744L86.76 64.544L86.7705 64.5362L86.7807 64.528L86.16 63.744ZM93.2 59.776L92.8489 58.8396L92.839 58.8434L93.2 59.776ZM90 75.136L90.5547 75.968L90.5547 75.968L90 75.136ZM83.344 82.816L82.4495 82.3688L82.4448 82.3785L83.344 82.816ZM83.344 104.704L82.436 105.123L82.4426 105.137L82.4496 105.151L83.344 104.704ZM90 112.384L89.4453 113.216L89.4453 113.216L90 112.384ZM109.584 112.384L109.029 111.552L109.023 111.556L109.017 111.56L109.584 112.384ZM116.112 104.704L115.213 104.266L115.208 104.276L116.112 104.704ZM116.112 82.816L115.208 83.2441L115.215 83.2586L115.222 83.2728L116.112 82.816ZM109.584 75.136L109.017 75.96L109.023 75.9641L109.029 75.968L109.584 75.136ZM101.776 59.24C107.568 59.24 112.709 60.7263 117.228 63.6847L118.324 62.0113C113.457 58.8257 107.931 57.24 101.776 57.24V59.24ZM117.246 63.696C121.864 66.582 125.498 70.5822 128.151 75.7226L129.929 74.8054C127.12 69.3644 123.246 65.0873 118.306 62L117.246 63.696ZM128.157 75.7338C130.884 80.8574 132.264 86.835 132.264 93.696H134.264C134.264 86.5623 132.828 80.2519 129.923 74.7941L128.157 75.7338ZM132.264 93.696C132.264 100.557 130.884 106.58 128.154 111.792L129.926 112.72C132.828 107.18 134.264 100.83 134.264 93.696H132.264ZM128.151 111.797C125.495 116.944 121.896 120.992 117.356 123.963L118.452 125.637C123.298 122.464 127.124 118.149 129.929 112.715L128.151 111.797ZM117.36 123.961C112.923 126.836 107.909 128.28 102.288 128.28V130.28C108.272 130.28 113.669 128.737 118.448 125.639L117.36 123.961ZM102.288 128.28C98.985 128.28 95.9037 127.744 93.0362 126.679L92.3398 128.553C95.4456 129.707 98.7643 130.28 102.288 130.28V128.28ZM93.0362 126.679C90.1281 125.598 87.5677 124.233 85.3472 122.588L84.1568 124.196C86.5443 125.964 89.2746 127.415 92.3398 128.553L93.0362 126.679ZM85.3617 122.599C83.1939 120.932 81.5157 119.288 80.304 117.672L78.704 118.872C80.0523 120.67 81.8728 122.439 84.1423 124.185L85.3617 122.599ZM80.3361 117.717C79.1746 115.975 78.712 114.686 78.712 113.792H76.712C76.712 115.287 77.4441 116.985 78.672 118.827L80.3361 117.717ZM78.0987 114.714L82.0667 113.05L81.2933 111.206L77.3253 112.87L78.0987 114.714ZM80.68 112.128V145.792H82.68V112.128H80.68ZM80.68 145.792C80.68 147.769 80.0438 149.342 78.7969 150.589L80.2111 152.003C81.8655 150.349 82.68 148.252 82.68 145.792H80.68ZM78.777 150.609C77.5256 151.934 75.959 152.6 74 152.6V154.6C76.4783 154.6 78.5811 153.73 80.231 151.983L78.777 150.609ZM74 152.6C72.0227 152.6 70.45 151.964 69.2031 150.717L67.7889 152.131C69.4433 153.786 71.54 154.6 74 154.6V152.6ZM69.2031 150.717C67.9638 149.478 67.32 147.866 67.32 145.792H65.32C65.32 148.326 66.1269 150.469 67.7889 152.131L69.2031 150.717ZM67.32 145.792V67.328H65.32V145.792H67.32ZM67.32 67.328C67.32 65.3507 67.9562 63.778 69.2031 62.5311L67.7889 61.1169C66.1345 62.7713 65.32 64.868 65.32 67.328H67.32ZM69.223 62.5106C70.4744 61.1856 72.041 60.52 74 60.52V58.52C71.5217 58.52 69.4189 59.3904 67.769 61.1374L69.223 62.5106ZM74 60.52C75.959 60.52 77.5256 61.1856 78.777 62.5106L80.231 61.1374C78.5811 59.3904 76.4783 58.52 74 58.52V60.52ZM78.7969 62.5311C80.0438 63.778 80.68 65.3507 80.68 67.328H82.68C82.68 64.868 81.8655 62.7713 80.2111 61.1169L78.7969 62.5311ZM80.68 67.328V73.6H82.68V67.328H80.68ZM82.1479 72.7162L79.9719 71.5642L79.0361 73.3318L81.2121 74.4838L82.1479 72.7162ZM80.504 72.448C80.504 71.6749 80.9352 70.5727 82.0854 69.0939L80.5066 67.8661C79.2675 69.4593 78.504 71.0024 78.504 72.448H80.504ZM82.1011 69.0732C83.2246 67.5484 84.77 66.0365 86.76 64.544L85.56 62.944C83.454 64.5235 81.7567 66.169 80.4909 67.8868L82.1011 69.0732ZM86.7807 64.528C88.7436 62.9741 91.0012 61.6995 93.561 60.7086L92.839 58.8434C90.1081 59.9005 87.6724 61.2713 85.5393 62.9599L86.7807 64.528ZM93.5511 60.7123C96.1668 59.7315 98.9063 59.24 101.776 59.24V57.24C98.6724 57.24 95.6945 57.7725 92.8489 58.8397L93.5511 60.7123ZM99.856 71.32C95.9264 71.32 92.4433 72.3053 89.4453 74.3039L90.5547 75.968C93.1887 74.212 96.2763 73.32 99.856 73.32V71.32ZM89.4453 74.3039C86.4742 76.2847 84.143 78.9819 82.4496 82.3688L84.2384 83.2632C85.7877 80.1647 87.8938 77.742 90.5547 75.968L89.4453 74.3039ZM82.4448 82.3785C80.8323 85.6931 80.04 89.4736 80.04 93.696H82.04C82.04 89.7264 82.7837 86.2535 84.2432 83.2535L82.4448 82.3785ZM80.04 93.696C80.04 97.8376 80.8339 101.652 82.436 105.123L84.252 104.285C82.7821 101.1 82.04 97.5758 82.04 93.696H80.04ZM82.4496 105.151C84.143 108.538 86.4742 111.235 89.4453 113.216L90.5547 111.552C87.8938 109.778 85.7877 107.355 84.2384 104.257L82.4496 105.151ZM89.4453 113.216C92.4433 115.215 95.9264 116.2 99.856 116.2V114.2C96.2763 114.2 93.1887 113.308 90.5547 111.552L89.4453 113.216ZM99.856 116.2C103.785 116.2 107.232 115.215 110.151 113.208L109.017 111.56C106.475 113.308 103.436 114.2 99.856 114.2V116.2ZM110.139 113.216C113.115 111.232 115.407 108.528 117.016 105.132L115.208 104.276C113.745 107.365 111.685 109.781 109.029 111.552L110.139 113.216ZM117.011 105.142C118.704 101.666 119.544 97.8455 119.544 93.696H117.544C117.544 97.5678 116.762 101.086 115.213 104.266L117.011 105.142ZM119.544 93.696C119.544 89.4657 118.706 85.6782 117.002 82.3592L115.222 83.2728C116.761 86.2685 117.544 89.7343 117.544 93.696H119.544ZM117.016 82.3879C115.407 78.9917 113.115 76.2879 110.139 74.3039L109.029 75.968C111.685 77.7387 113.745 80.155 115.208 83.2441L117.016 82.3879ZM110.151 74.312C107.232 72.3052 103.785 71.32 99.856 71.32V73.32C103.436 73.32 106.475 74.2122 109.017 75.96L110.151 74.312Z" fill="#3B82ED" mask="url(#path-2-outside-1_102_7)"/>
</svg>
